*******************************************************************************
 Answers to Nothing.2011.DVDSCR.Xvid.AC3-SiNiSTER
*******************************************************************************
-------------------------------------------------------------------------------
 General Information
------------------------------------------------------------------------------- 
http://www.pix2links.com/image/Btp2v.jpg
Format : AVI
Format/Info : Audio Video Interleave
File size : 1.43 GiB
Duration : 2h 3mn
Overall bit rate : 1 654 Kbps
Video
ID : 0
Format : MPEG-4 Visual
Format profile : Advanced Simple@L5
Format settings, BVOP : Yes
Format settings, QPel : Yes
Format settings, GMC : 3 warppoints
Format settings, Matrix : Default (H.263)
Muxing mode : Packed bitstream
Codec ID : XVID
Codec ID/Hint : XviD
Duration : 2h 3mn
Bit rate : 1 263 Kbps
Width : 720 pixels
Height : 304 pixels
Display aspect ratio : 2.35:1
Frame rate : 23.976 fps
Color space : YUV
Chroma subsampling : 4:2:0
Bit depth : 8 bits
Scan type : Progressive
Bits/(Pixel*Frame) : 0.241
Stream size : 1.09 GiB (76%)
Writing library : XviD 64
Audio
ID : 1
Format : AC-3
Format/Info : Audio Coding 3
Mode extension : CM (complete main)
Codec ID : 2000
Duration : 2h 3mn
Bit rate mode : Constant
Bit rate : 384 Kbps
Channel(s) : 2 channels
Channel positions : Front: L R
Sampling rate : 44.1 KHz
Bit depth : 16 bits
Stream size : 340 MiB (23%)
Alignment : Aligned on interleaves
Interleave, duration : 70 ms (1.67 video frames)
Interleave, preload duration : 208 ms
Video Source: Answers to Nothing (2011) DVDSCR [500MB] Jcberry526.....thanks 
Audio Source: Answers to Nothing (2011) DVDSCR [500MB] Jcberry526.....thanks
Greets:
DarkScene,HDScene,Noir,CrEwSaDe,blackjesus,ViSiON,HDLiTE,BTVRG,Twentyforty,UnKnOwN,
FLAWL3SS,Rx,Relizlab,MiSTERE,ILLUMiNATI,SAFCuk009,HiVE-CM8..... and everybody else we 
respect.. u know who u are
 
-------------------------------------------------------------------------------
 Post Information
-------------------------------------------------------------------------------
Encoded by...........: SiNiSTER
 
Have sumthing to offer..looking for suppliers... cammers,cams,screeners, audio
supplier.. and any pre retail DVD/BR any RC...if u can provide any email us at
sinister@hushmail.me
-------------------------------------------------------------------------------
 Release Notes
-------------------------------------------------------------------------------
another SCR not really ripped right but did what i could.. made a script with a 
heavy denoiser, thendropped that into vdub and made slight RGB adjustment, hue
saturation, level and contrast then sharpened a lil.. converted AAC to AC3 and 
muxed it back to my encode.....enjoy
-------------------------------------------------------------------------------
 ScreenShots
------------------------------------------------------------------------------- 
http://www.pix2links.com/image/bTjua.png 
http://www.pix2links.com/image/b9Cg4.png 
http://www.pix2links.com/image/UwVG.png 
http://www.pix2links.com/image/mjZI7.png 
http://www.pix2links.com/image/tvVy5.jpg
-------------------------------------------------------------------------------
[img]http://leetleech.org/images/33506450373550172140.gif[/img]
-------------------------------------------------------------------------------
Generated with Cool NFO Creator - http://fly.to/coolbeans
-------------------------------------------------------------------------------
